<svg xmlns="http://www.w3.org/2000/svg" width="10" height="142.387" viewBox="0 0 10 142.387">
  <path id="Path_28814" data-name="Path 28814" d="M-69.813-5.868a5.5,5.5,0,0,1-.348,2,4.433,4.433,0,0,1-.982,1.542,4.379,4.379,0,0,1-1.521.992,5.291,5.291,0,0,1-1.965.351h-3.656v-9.775h3.656a5.291,5.291,0,0,1,1.965.351,4.355,4.355,0,0,1,1.521,1,4.468,4.468,0,0,1,.982,1.545A5.5,5.5,0,0,1-69.813-5.868Zm-1.357,0a4.906,4.906,0,0,0-.246-1.61,3.393,3.393,0,0,0-.7-1.2,2.967,2.967,0,0,0-1.091-.75,3.772,3.772,0,0,0-1.426-.259h-2.326v7.633h2.326A3.772,3.772,0,0,0-73.2-2.314a2.987,2.987,0,0,0,1.091-.747,3.358,3.358,0,0,0,.7-1.2A4.906,4.906,0,0,0-71.17-5.868Zm14.284,0a5.642,5.642,0,0,1-.348,2.016,4.616,4.616,0,0,1-.982,1.579,4.39,4.39,0,0,1-1.525,1.027,5.141,5.141,0,0,1-1.968.365,5.115,5.115,0,0,1-1.965-.365,4.4,4.4,0,0,1-1.521-1.027,4.616,4.616,0,0,1-.982-1.579,5.642,5.642,0,0,1-.348-2.016,5.642,5.642,0,0,1,.348-2.016,4.653,4.653,0,0,1,.982-1.583A4.414,4.414,0,0,1-63.674-10.5a5.074,5.074,0,0,1,1.965-.368,5.1,5.1,0,0,1,1.968.368,4.407,4.407,0,0,1,1.525,1.033,4.653,4.653,0,0,1,.982,1.583A5.642,5.642,0,0,1-56.887-5.868Zm-1.357,0a4.968,4.968,0,0,0-.246-1.617,3.419,3.419,0,0,0-.7-1.211,3.019,3.019,0,0,0-1.091-.761,3.705,3.705,0,0,0-1.432-.266,3.687,3.687,0,0,0-1.426.266,3.052,3.052,0,0,0-1.095.761,3.392,3.392,0,0,0-.7,1.211,4.968,4.968,0,0,0-.246,1.617,4.937,4.937,0,0,0,.246,1.613,3.4,3.4,0,0,0,.7,1.207,3.015,3.015,0,0,0,1.095.757,3.729,3.729,0,0,0,1.426.263,3.747,3.747,0,0,0,1.432-.263,2.984,2.984,0,0,0,1.091-.757,3.424,3.424,0,0,0,.7-1.207A4.937,4.937,0,0,0-58.244-5.868ZM-46.143-3a.274.274,0,0,1,.2.089l.518.566a4.182,4.182,0,0,1-1.456,1.085,4.966,4.966,0,0,1-2.063.389,4.858,4.858,0,0,1-1.917-.365A4.2,4.2,0,0,1-52.33-2.262a4.625,4.625,0,0,1-.941-1.579,5.9,5.9,0,0,1-.334-2.026,5.545,5.545,0,0,1,.358-2.026,4.629,4.629,0,0,1,1.006-1.583A4.5,4.5,0,0,1-50.689-10.5a5.282,5.282,0,0,1,2-.365,4.705,4.705,0,0,1,1.859.334,4.7,4.7,0,0,1,1.388.907l-.43.607a.468.468,0,0,1-.109.113.3.3,0,0,1-.177.044.345.345,0,0,1-.188-.065q-.1-.065-.235-.16t-.321-.2a2.809,2.809,0,0,0-.437-.2,3.607,3.607,0,0,0-.587-.16,4.084,4.084,0,0,0-.771-.065,3.722,3.722,0,0,0-1.436.269,3.215,3.215,0,0,0-1.122.767,3.492,3.492,0,0,0-.733,1.214,4.63,4.63,0,0,0-.263,1.6,4.716,4.716,0,0,0,.263,1.63,3.6,3.6,0,0,0,.716,1.211,3.02,3.02,0,0,0,1.074.754,3.434,3.434,0,0,0,1.337.259,5.429,5.429,0,0,0,.784-.051,3.222,3.222,0,0,0,.645-.16,2.728,2.728,0,0,0,.553-.276,4.321,4.321,0,0,0,.515-.4A.347.347,0,0,1-46.143-3Zm8.3.969a2.729,2.729,0,0,0,1.085-.2,2.275,2.275,0,0,0,.808-.573,2.506,2.506,0,0,0,.5-.88,3.478,3.478,0,0,0,.174-1.126v-5.941h1.317v5.941a4.458,4.458,0,0,1-.269,1.569A3.645,3.645,0,0,1-34.994-2a3.525,3.525,0,0,1-1.224.829,4.2,4.2,0,0,1-1.623.3,4.2,4.2,0,0,1-1.623-.3A3.56,3.56,0,0,1-40.693-2a3.619,3.619,0,0,1-.774-1.252,4.458,4.458,0,0,1-.269-1.569v-5.941h1.317v5.935A3.478,3.478,0,0,0-40.246-3.7a2.506,2.506,0,0,0,.5.88,2.3,2.3,0,0,0,.812.576A2.715,2.715,0,0,0-37.842-2.034Zm13.015-2.483a2.538,2.538,0,0,1,.167.344q.072.181.14.365.068-.191.143-.365t.171-.351l3.308-6.01a.393.393,0,0,1,.184-.191.848.848,0,0,1,.273-.034h.975V-.983h-1.16V-8.166q0-.143.007-.307t.02-.334L-23.947-2.7a.526.526,0,0,1-.477.307h-.191a.526.526,0,0,1-.477-.307l-3.424-6.132q.02.177.031.348t.01.314V-.983h-1.16v-9.775h.975a.848.848,0,0,1,.273.034.393.393,0,0,1,.184.191Zm15.812-6.241v1.078h-4.693v3.247h3.8V-5.4h-3.8v3.336h4.693V-.983h-6.023v-9.775Zm4.632,0a.594.594,0,0,1,.263.044.679.679,0,0,1,.194.181L1.735-3.166q-.02-.177-.027-.344T1.7-3.835v-6.924h1.16V-.983H2.192a.569.569,0,0,1-.263-.055.663.663,0,0,1-.208-.184l-5.655-7.36q.014.171.02.334t.007.3V-.983h-1.16v-9.775Zm18.336,0v1.112H10.794V-.983H9.471V-9.646H6.3v-1.112ZM24.532-.983H23.509a.44.44,0,0,1-.286-.089.545.545,0,0,1-.164-.225l-.914-2.36H17.759L16.845-1.3a.533.533,0,0,1-.164.218.436.436,0,0,1-.286.1H15.371l3.909-9.775h1.344ZM18.127-4.612h3.649L20.242-8.589a7.432,7.432,0,0,1-.293-.921q-.075.28-.147.515t-.14.413ZM33.57-10.758v1.112H30.412V-.983H29.089V-9.646H25.917v-1.112ZM38.577-.983H37.254v-9.775h1.323ZM52.322-5.868a5.642,5.642,0,0,1-.348,2.016,4.616,4.616,0,0,1-.982,1.579,4.39,4.39,0,0,1-1.525,1.027A5.141,5.141,0,0,1,47.5-.881a5.115,5.115,0,0,1-1.965-.365,4.4,4.4,0,0,1-1.521-1.027,4.616,4.616,0,0,1-.982-1.579,5.642,5.642,0,0,1-.348-2.016,5.642,5.642,0,0,1,.348-2.016,4.653,4.653,0,0,1,.982-1.583A4.414,4.414,0,0,1,45.535-10.5a5.074,5.074,0,0,1,1.965-.368,5.1,5.1,0,0,1,1.968.368,4.407,4.407,0,0,1,1.525,1.033,4.653,4.653,0,0,1,.982,1.583A5.642,5.642,0,0,1,52.322-5.868Zm-1.357,0a4.968,4.968,0,0,0-.246-1.617,3.419,3.419,0,0,0-.7-1.211,3.019,3.019,0,0,0-1.091-.761A3.705,3.705,0,0,0,47.5-9.722a3.686,3.686,0,0,0-1.426.266,3.052,3.052,0,0,0-1.095.761,3.392,3.392,0,0,0-.7,1.211,4.968,4.968,0,0,0-.246,1.617,4.937,4.937,0,0,0,.246,1.613,3.4,3.4,0,0,0,.7,1.207,3.015,3.015,0,0,0,1.095.757,3.729,3.729,0,0,0,1.426.263,3.747,3.747,0,0,0,1.432-.263,2.984,2.984,0,0,0,1.091-.757,3.424,3.424,0,0,0,.7-1.207A4.937,4.937,0,0,0,50.965-5.868Zm5.894-4.891a.594.594,0,0,1,.263.044.679.679,0,0,1,.194.181l5.662,7.367q-.02-.177-.027-.344t-.007-.324v-6.924H64.1V-.983h-.668a.569.569,0,0,1-.263-.055.663.663,0,0,1-.208-.184l-5.655-7.36q.014.171.02.334t.007.3V-.983h-1.16v-9.775Z" transform="translate(10.868 64.102) rotate(-90)" fill="#fff"/>
</svg>
