<svg xmlns="http://www.w3.org/2000/svg" width="10" height="207.809" viewBox="0 0 10 207.809">
  <path id="Path_28820" data-name="Path 28820" d="M-105.62-.977h-1.024a.44.44,0,0,1-.287-.089.546.546,0,0,1-.164-.225l-.915-2.362H-112.4l-.915,2.362a.533.533,0,0,1-.164.218.436.436,0,0,1-.287.1h-1.024l3.911-9.782h1.345Zm-6.41-3.631h3.652l-1.536-3.98a7.438,7.438,0,0,1-.294-.922q-.075.28-.147.515t-.14.413Zm15.72-6.15V-9.68h-4.7v3.249h3.8v1.038h-3.8v3.338h4.7V-.977h-6.027v-9.782Zm8.962,1.529a.529.529,0,0,1-.13.154.288.288,0,0,1-.177.051.473.473,0,0,1-.27-.116,4.3,4.3,0,0,0-.389-.256,3.158,3.158,0,0,0-.567-.256,2.438,2.438,0,0,0-.8-.116,2.372,2.372,0,0,0-.785.119,1.669,1.669,0,0,0-.57.324,1.331,1.331,0,0,0-.345.481,1.528,1.528,0,0,0-.116.6,1.1,1.1,0,0,0,.2.679,1.735,1.735,0,0,0,.532.461,4.078,4.078,0,0,0,.751.331q.42.14.86.29t.86.338a3.025,3.025,0,0,1,.751.474,2.163,2.163,0,0,1,.532.7,2.34,2.34,0,0,1,.2,1.024,3.3,3.3,0,0,1-.218,1.2,2.777,2.777,0,0,1-.638.98,2.986,2.986,0,0,1-1.031.655,3.791,3.791,0,0,1-1.389.239,4.242,4.242,0,0,1-1.73-.345,4.059,4.059,0,0,1-1.334-.932l.382-.628a.5.5,0,0,1,.133-.126.312.312,0,0,1,.174-.051.543.543,0,0,1,.328.154,5.458,5.458,0,0,0,.461.338A3.52,3.52,0,0,0-91-2.12a2.64,2.64,0,0,0,.959.154,2.522,2.522,0,0,0,.84-.13,1.783,1.783,0,0,0,.625-.365,1.582,1.582,0,0,0,.392-.563,1.882,1.882,0,0,0,.137-.73,1.226,1.226,0,0,0-.2-.727,1.669,1.669,0,0,0-.529-.474,3.7,3.7,0,0,0-.747-.324l-.86-.273a8.672,8.672,0,0,1-.86-.324A2.8,2.8,0,0,1-92-6.356a2.2,2.2,0,0,1-.529-.734,2.614,2.614,0,0,1-.2-1.089,2.591,2.591,0,0,1,.2-1,2.586,2.586,0,0,1,.584-.86,2.829,2.829,0,0,1,.945-.6,3.463,3.463,0,0,1,1.294-.225,4.14,4.14,0,0,1,1.495.259,3.443,3.443,0,0,1,1.181.751Zm11.87-1.638a3.565,3.565,0,0,1,1.16.184,2.674,2.674,0,0,1,.932.536,2.5,2.5,0,0,1,.618.857,2.788,2.788,0,0,1,.225,1.147,3.015,3.015,0,0,1-.164,1.01,4.12,4.12,0,0,1-.444.891,6.543,6.543,0,0,1-.645.826q-.365.4-.775.816l-2.573,2.635a5.088,5.088,0,0,1,.553-.119,3.444,3.444,0,0,1,.539-.044h3.276a.424.424,0,0,1,.314.116.406.406,0,0,1,.116.3v.737h-6.526v-.416a.756.756,0,0,1,.051-.266.709.709,0,0,1,.167-.253l3.133-3.147q.389-.4.71-.761a5.549,5.549,0,0,0,.549-.734,3.418,3.418,0,0,0,.352-.747,2.606,2.606,0,0,0,.123-.809,1.932,1.932,0,0,0-.137-.754A1.459,1.459,0,0,0-74.3-9.4a1.579,1.579,0,0,0-.56-.317,2.188,2.188,0,0,0-.689-.106,2.065,2.065,0,0,0-.683.109,1.852,1.852,0,0,0-.556.3,1.845,1.845,0,0,0-.41.461,1.8,1.8,0,0,0-.235.587.544.544,0,0,1-.164.287.441.441,0,0,1-.287.089q-.034,0-.072,0L-78.037-8l-.635-.109A3.6,3.6,0,0,1-78.3-9.294a2.823,2.823,0,0,1,.693-.863,2.957,2.957,0,0,1,.962-.529A3.68,3.68,0,0,1-75.477-10.868Zm12.539.642A.584.584,0,0,1-63.1-9.8a.754.754,0,0,1-.553.167h-3.072l-.451,2.567a6.777,6.777,0,0,1,1.413-.164A3.729,3.729,0,0,1-64.415-7a2.778,2.778,0,0,1,.98.621,2.583,2.583,0,0,1,.6.935,3.331,3.331,0,0,1,.2,1.174,3.491,3.491,0,0,1-.273,1.406,3.224,3.224,0,0,1-.747,1.075,3.271,3.271,0,0,1-1.116.686,3.94,3.94,0,0,1-1.386.239,3.911,3.911,0,0,1-.826-.085,4.167,4.167,0,0,1-.737-.229,4.382,4.382,0,0,1-.635-.328,3.67,3.67,0,0,1-.519-.389l.369-.519a.38.38,0,0,1,.328-.177.609.609,0,0,1,.3.106q.174.106.42.235a3.565,3.565,0,0,0,.577.235,2.6,2.6,0,0,0,.788.106,2.463,2.463,0,0,0,.921-.164,1.96,1.96,0,0,0,.7-.468,2.091,2.091,0,0,0,.447-.727,2.712,2.712,0,0,0,.157-.949A2.419,2.419,0,0,0-64-5.045a1.622,1.622,0,0,0-.4-.628,1.848,1.848,0,0,0-.672-.4,2.808,2.808,0,0,0-.942-.143,4.986,4.986,0,0,0-.765.061,5.339,5.339,0,0,0-.819.2l-.764-.225.792-4.573h4.635Zm7.727,3.256a3.179,3.179,0,0,1,1.113.195,2.7,2.7,0,0,1,.922.567,2.685,2.685,0,0,1,.628.915,3.125,3.125,0,0,1,.232,1.239A3.187,3.187,0,0,1-52.562-2.8a3.07,3.07,0,0,1-.686,1.01,3.164,3.164,0,0,1-1.061.676,3.68,3.68,0,0,1-1.365.246A3.611,3.611,0,0,1-57.009-1.1a2.884,2.884,0,0,1-1.02-.669,2.946,2.946,0,0,1-.652-1.051,3.959,3.959,0,0,1-.229-1.382,3.713,3.713,0,0,1,.287-1.365,6.933,6.933,0,0,1,.908-1.556l2.478-3.338a.761.761,0,0,1,.266-.208.858.858,0,0,1,.389-.085H-53.5L-56.9-6.465a2.882,2.882,0,0,1,.771-.372A3.034,3.034,0,0,1-55.211-6.97Zm-2.526,2.976a2.583,2.583,0,0,0,.137.86,1.866,1.866,0,0,0,.4.669,1.788,1.788,0,0,0,.642.433,2.283,2.283,0,0,0,.863.154,2.389,2.389,0,0,0,.887-.157,2,2,0,0,0,.679-.437,1.931,1.931,0,0,0,.437-.662,2.213,2.213,0,0,0,.154-.833,2.363,2.363,0,0,0-.15-.863,1.851,1.851,0,0,0-.423-.655,1.837,1.837,0,0,0-.655-.413,2.374,2.374,0,0,0-.84-.143,2.26,2.26,0,0,0-.887.167,2.03,2.03,0,0,0-.672.451,1.957,1.957,0,0,0-.423.655A2.093,2.093,0,0,0-57.736-3.994ZM-49-5.584h3.372v1.031H-49Zm7.29,4.608v-9.782h3.119a5.964,5.964,0,0,1,1.553.177,3.007,3.007,0,0,1,1.072.505,1.992,1.992,0,0,1,.621.8,2.71,2.71,0,0,1,.2,1.068,2.167,2.167,0,0,1-.113.7,2.029,2.029,0,0,1-.341.621,2.413,2.413,0,0,1-.573.512,3.194,3.194,0,0,1-.809.369,3.016,3.016,0,0,1,1.618.771,2.021,2.021,0,0,1,.546,1.474,2.747,2.747,0,0,1-.229,1.133,2.428,2.428,0,0,1-.669.881,3.121,3.121,0,0,1-1.078.57,4.842,4.842,0,0,1-1.457.2Zm1.324-4.457v3.406h2.116a3.217,3.217,0,0,0,.973-.13,1.814,1.814,0,0,0,.669-.365,1.416,1.416,0,0,0,.386-.56,2,2,0,0,0,.123-.713,1.468,1.468,0,0,0-.536-1.2,2.516,2.516,0,0,0-1.621-.44Zm0-.942h1.747a3.392,3.392,0,0,0,.969-.123,1.962,1.962,0,0,0,.679-.341,1.334,1.334,0,0,0,.4-.529,1.745,1.745,0,0,0,.13-.679,1.5,1.5,0,0,0-.519-1.263,2.621,2.621,0,0,0-1.611-.4h-1.8Zm11.126,5.4h-1.324v-9.782h1.324Zm11.331-9.782v1.113h-3.16V-.977h-1.324V-9.646h-3.174v-1.113Zm14.15,0V-9.68h-4.7v3.249h3.8v1.038h-3.8v3.338h4.7V-.977H-9.8v-9.782Zm4.635,0a.594.594,0,0,1,.263.044.68.68,0,0,1,.195.181L6.98-3.161q-.02-.177-.027-.345T6.946-3.83v-6.928h1.16V-.977H7.438a.569.569,0,0,1-.263-.055.664.664,0,0,1-.208-.184L1.308-8.581q.014.171.02.334t.007.3V-.977H.175v-9.782ZM19.438-3a.274.274,0,0,1,.2.089l.519.567A4.185,4.185,0,0,1,18.7-1.257a4.969,4.969,0,0,1-2.065.389,4.861,4.861,0,0,1-1.918-.365,4.2,4.2,0,0,1-1.468-1.024,4.628,4.628,0,0,1-.942-1.58,5.9,5.9,0,0,1-.334-2.027,5.548,5.548,0,0,1,.358-2.027,4.632,4.632,0,0,1,1.007-1.584A4.505,4.505,0,0,1,14.888-10.5a5.286,5.286,0,0,1,2-.365,4.708,4.708,0,0,1,1.86.334,4.7,4.7,0,0,1,1.389.908l-.43.608a.469.469,0,0,1-.109.113.3.3,0,0,1-.177.044.346.346,0,0,1-.188-.065q-.1-.065-.235-.16t-.321-.2a2.811,2.811,0,0,0-.437-.2,3.609,3.609,0,0,0-.587-.16,4.086,4.086,0,0,0-.771-.065,3.724,3.724,0,0,0-1.437.27,3.217,3.217,0,0,0-1.123.768,3.494,3.494,0,0,0-.734,1.215,4.633,4.633,0,0,0-.263,1.6,4.719,4.719,0,0,0,.263,1.631A3.6,3.6,0,0,0,14.3-3.021a3.022,3.022,0,0,0,1.075.754,3.437,3.437,0,0,0,1.338.259,5.433,5.433,0,0,0,.785-.051,3.224,3.224,0,0,0,.645-.16A2.73,2.73,0,0,0,18.7-2.5a4.324,4.324,0,0,0,.515-.4A.347.347,0,0,1,19.438-3ZM25.4-5.059V-.977H24.079v-9.782h2.765a6.04,6.04,0,0,1,1.6.188,3.061,3.061,0,0,1,1.116.543,2.173,2.173,0,0,1,.652.857,2.863,2.863,0,0,1,.212,1.123,2.815,2.815,0,0,1-.164.969,2.56,2.56,0,0,1-.474.809,2.838,2.838,0,0,1-.758.611,3.751,3.751,0,0,1-1.014.382,1.4,1.4,0,0,1,.437.416L31.308-.977H30.134a.579.579,0,0,1-.532-.28L27.062-4.751a.74.74,0,0,0-.253-.235.911.911,0,0,0-.41-.072Zm0-.962h1.386a3.374,3.374,0,0,0,1.02-.14,2.076,2.076,0,0,0,.737-.4,1.642,1.642,0,0,0,.447-.611,2,2,0,0,0,.15-.785,1.559,1.559,0,0,0-.577-1.317,2.788,2.788,0,0,0-1.717-.444H25.4ZM38.55-4.868V-.977H37.233V-4.868l-3.584-5.891h1.16a.413.413,0,0,1,.28.089.848.848,0,0,1,.177.218l2.239,3.8a4.685,4.685,0,0,1,.229.451q.092.212.167.416.075-.212.164-.423a3.71,3.71,0,0,1,.225-.444l2.232-3.8a.874.874,0,0,1,.167-.208.388.388,0,0,1,.276-.1h1.174Zm8.321.232V-.977H45.554v-9.782h2.887a5.418,5.418,0,0,1,1.614.215,3.1,3.1,0,0,1,1.137.611,2.462,2.462,0,0,1,.672.956,3.364,3.364,0,0,1,.222,1.249,3.183,3.183,0,0,1-.239,1.249,2.687,2.687,0,0,1-.7.976A3.25,3.25,0,0,1,50-4.864a4.914,4.914,0,0,1-1.563.229Zm0-1.051h1.57a3.051,3.051,0,0,0,1-.15,2.051,2.051,0,0,0,.727-.42,1.743,1.743,0,0,0,.444-.645,2.2,2.2,0,0,0,.15-.826,1.877,1.877,0,0,0-.577-1.461,2.517,2.517,0,0,0-1.744-.526h-1.57Zm15.6-5.072v1.113h-3.16V-.977H57.984V-9.646H54.81v-1.113Zm5.01,9.782H66.154v-9.782h1.324ZM81.233-5.864a5.646,5.646,0,0,1-.348,2.017,4.619,4.619,0,0,1-.983,1.58A4.393,4.393,0,0,1,78.376-1.24a5.145,5.145,0,0,1-1.969.365,5.119,5.119,0,0,1-1.966-.365,4.4,4.4,0,0,1-1.522-1.027,4.619,4.619,0,0,1-.983-1.58,5.646,5.646,0,0,1-.348-2.017,5.646,5.646,0,0,1,.348-2.017,4.656,4.656,0,0,1,.983-1.584A4.417,4.417,0,0,1,74.441-10.5a5.077,5.077,0,0,1,1.966-.369,5.1,5.1,0,0,1,1.969.369A4.41,4.41,0,0,1,79.9-9.465a4.656,4.656,0,0,1,.983,1.584A5.646,5.646,0,0,1,81.233-5.864Zm-1.358,0a4.971,4.971,0,0,0-.246-1.618,3.422,3.422,0,0,0-.7-1.212,3.021,3.021,0,0,0-1.092-.761,3.708,3.708,0,0,0-1.433-.266,3.689,3.689,0,0,0-1.427.266,3.054,3.054,0,0,0-1.1.761,3.394,3.394,0,0,0-.7,1.212,4.971,4.971,0,0,0-.246,1.618,4.94,4.94,0,0,0,.246,1.614,3.4,3.4,0,0,0,.7,1.208,3.018,3.018,0,0,0,1.1.758,3.731,3.731,0,0,0,1.427.263,3.75,3.75,0,0,0,1.433-.263,2.986,2.986,0,0,0,1.092-.758,3.426,3.426,0,0,0,.7-1.208A4.94,4.94,0,0,0,79.875-5.864Zm5.9-4.894a.594.594,0,0,1,.263.044.68.68,0,0,1,.195.181L91.9-3.161q-.02-.177-.027-.345t-.007-.324v-6.928h1.16V-.977h-.669a.569.569,0,0,1-.263-.055.664.664,0,0,1-.208-.184L86.223-8.581q.014.171.02.334t.007.3V-.977H85.09v-9.782Z" transform="translate(10.868 93.021) rotate(-90)" fill="#fff"/>
</svg>
