<svg xmlns="http://www.w3.org/2000/svg" width="10" height="94.632" viewBox="0 0 10 94.632">
  <path id="Path_28816" data-name="Path 28816" d="M-50.187-.983H-51.51v-9.775h1.323Zm5.348-9.775a.594.594,0,0,1,.263.044.68.68,0,0,1,.194.181l5.662,7.367q-.02-.177-.027-.344t-.007-.324v-6.924h1.16V-.983h-.668a.569.569,0,0,1-.263-.055.663.663,0,0,1-.208-.184l-5.655-7.36q.014.171.02.334t.007.3V-.983h-1.16v-9.775Zm20.15,4.891a5.5,5.5,0,0,1-.348,2,4.432,4.432,0,0,1-.982,1.542,4.379,4.379,0,0,1-1.521.992A5.291,5.291,0,0,1-29.5-.983h-3.656v-9.775H-29.5a5.291,5.291,0,0,1,1.965.351,4.355,4.355,0,0,1,1.521,1,4.468,4.468,0,0,1,.982,1.545A5.5,5.5,0,0,1-24.689-5.868Zm-1.357,0a4.906,4.906,0,0,0-.246-1.61,3.393,3.393,0,0,0-.7-1.2,2.967,2.967,0,0,0-1.091-.75A3.772,3.772,0,0,0-29.5-9.687h-2.326v7.633H-29.5a3.772,3.772,0,0,0,1.426-.259,2.987,2.987,0,0,0,1.091-.747,3.358,3.358,0,0,0,.7-1.2A4.906,4.906,0,0,0-26.046-5.868Zm9,3.834a2.729,2.729,0,0,0,1.085-.2,2.275,2.275,0,0,0,.808-.573,2.506,2.506,0,0,0,.5-.88,3.478,3.478,0,0,0,.174-1.126v-5.941h1.317v5.941a4.458,4.458,0,0,1-.269,1.569A3.645,3.645,0,0,1-14.194-2a3.525,3.525,0,0,1-1.224.829,4.2,4.2,0,0,1-1.623.3,4.2,4.2,0,0,1-1.623-.3A3.56,3.56,0,0,1-19.893-2a3.619,3.619,0,0,1-.774-1.252,4.458,4.458,0,0,1-.269-1.569v-5.941h1.317v5.935A3.478,3.478,0,0,0-19.447-3.7a2.506,2.506,0,0,0,.5.88,2.3,2.3,0,0,0,.812.576A2.715,2.715,0,0,0-17.042-2.034Zm13.213-7.2a.529.529,0,0,1-.13.153.288.288,0,0,1-.177.051.472.472,0,0,1-.269-.116A4.3,4.3,0,0,0-4.794-9.4a3.155,3.155,0,0,0-.566-.256,2.436,2.436,0,0,0-.8-.116,2.37,2.37,0,0,0-.784.119,1.668,1.668,0,0,0-.57.324,1.33,1.33,0,0,0-.344.481,1.526,1.526,0,0,0-.116.6,1.1,1.1,0,0,0,.2.679,1.734,1.734,0,0,0,.532.46,4.076,4.076,0,0,0,.75.331q.42.14.859.29t.859.338a3.023,3.023,0,0,1,.75.474,2.161,2.161,0,0,1,.532.7,2.338,2.338,0,0,1,.2,1.023,3.3,3.3,0,0,1-.218,1.2,2.776,2.776,0,0,1-.638.979,2.984,2.984,0,0,1-1.03.655,3.789,3.789,0,0,1-1.388.239,4.239,4.239,0,0,1-1.729-.344A4.056,4.056,0,0,1-9.627-2.15l.382-.628A.5.5,0,0,1-9.112-2.9a.312.312,0,0,1,.174-.051.543.543,0,0,1,.327.153,5.455,5.455,0,0,0,.46.338,3.517,3.517,0,0,0,.668.338,2.638,2.638,0,0,0,.958.153,2.52,2.52,0,0,0,.839-.13,1.782,1.782,0,0,0,.624-.365,1.581,1.581,0,0,0,.392-.563,1.881,1.881,0,0,0,.136-.73,1.225,1.225,0,0,0-.2-.726,1.668,1.668,0,0,0-.529-.474,3.7,3.7,0,0,0-.747-.324l-.859-.273a8.667,8.667,0,0,1-.859-.324,2.793,2.793,0,0,1-.747-.477A2.194,2.194,0,0,1-9-7.092,2.612,2.612,0,0,1-9.2-8.18a2.589,2.589,0,0,1,.2-1,2.585,2.585,0,0,1,.583-.859,2.827,2.827,0,0,1,.945-.6,3.461,3.461,0,0,1,1.293-.225,4.138,4.138,0,0,1,1.494.259,3.44,3.44,0,0,1,1.18.75ZM7.1-10.758v1.112H3.94V-.983H2.617V-9.646H-.555v-1.112Zm4.891,5.7V-.983H10.673v-9.775h2.763a6.036,6.036,0,0,1,1.6.188,3.059,3.059,0,0,1,1.115.542,2.171,2.171,0,0,1,.651.856,2.861,2.861,0,0,1,.211,1.122,2.813,2.813,0,0,1-.164.969,2.558,2.558,0,0,1-.474.808,2.836,2.836,0,0,1-.757.611,3.748,3.748,0,0,1-1.013.382,1.4,1.4,0,0,1,.437.416L17.9-.983H16.723a.579.579,0,0,1-.532-.28L13.654-4.756a.739.739,0,0,0-.252-.235.91.91,0,0,0-.409-.072Zm0-.962h1.385a3.371,3.371,0,0,0,1.02-.14,2.075,2.075,0,0,0,.737-.4,1.641,1.641,0,0,0,.447-.611,1.994,1.994,0,0,0,.15-.784,1.558,1.558,0,0,0-.576-1.317,2.786,2.786,0,0,0-1.716-.443H11.989ZM22.937-.983H21.614v-9.775h1.323Zm10.689-9.775v1.078H28.933v3.247h3.8V-5.4h-3.8v3.336h4.693V-.983H27.6v-9.775ZM42.583-9.23a.529.529,0,0,1-.13.153.288.288,0,0,1-.177.051.472.472,0,0,1-.269-.116,4.294,4.294,0,0,0-.389-.256,3.155,3.155,0,0,0-.566-.256,2.436,2.436,0,0,0-.8-.116,2.37,2.37,0,0,0-.784.119,1.668,1.668,0,0,0-.57.324,1.33,1.33,0,0,0-.344.481,1.526,1.526,0,0,0-.116.6,1.1,1.1,0,0,0,.2.679,1.734,1.734,0,0,0,.532.46,4.076,4.076,0,0,0,.75.331q.42.14.859.29t.859.338a3.023,3.023,0,0,1,.75.474,2.161,2.161,0,0,1,.532.7,2.338,2.338,0,0,1,.2,1.023,3.3,3.3,0,0,1-.218,1.2,2.776,2.776,0,0,1-.638.979,2.984,2.984,0,0,1-1.03.655,3.789,3.789,0,0,1-1.388.239,4.239,4.239,0,0,1-1.729-.344,4.056,4.056,0,0,1-1.334-.931l.382-.628A.5.5,0,0,1,37.3-2.9a.312.312,0,0,1,.174-.051A.543.543,0,0,1,37.8-2.8a5.455,5.455,0,0,0,.46.338,3.517,3.517,0,0,0,.668.338,2.638,2.638,0,0,0,.958.153,2.52,2.52,0,0,0,.839-.13,1.782,1.782,0,0,0,.624-.365,1.581,1.581,0,0,0,.392-.563,1.881,1.881,0,0,0,.136-.73,1.225,1.225,0,0,0-.2-.726,1.668,1.668,0,0,0-.529-.474,3.7,3.7,0,0,0-.747-.324l-.859-.273a8.667,8.667,0,0,1-.859-.324,2.793,2.793,0,0,1-.747-.477,2.194,2.194,0,0,1-.529-.733,2.612,2.612,0,0,1-.2-1.088,2.589,2.589,0,0,1,.2-1,2.584,2.584,0,0,1,.583-.859,2.827,2.827,0,0,1,.945-.6,3.461,3.461,0,0,1,1.293-.225,4.138,4.138,0,0,1,1.494.259,3.44,3.44,0,0,1,1.18.75Z" transform="translate(10.868 43.122) rotate(-90)" fill="#fff"/>
</svg>
