<svg xmlns="http://www.w3.org/2000/svg" width="10" height="65.324" viewBox="0 0 10 65.324">
  <path id="Path_28817" data-name="Path 28817" d="M-34.308-4.635V-.977h-1.317v-9.782h2.887a5.418,5.418,0,0,1,1.614.215,3.1,3.1,0,0,1,1.137.611,2.462,2.462,0,0,1,.672.956,3.364,3.364,0,0,1,.222,1.249,3.183,3.183,0,0,1-.239,1.249,2.687,2.687,0,0,1-.7.976,3.25,3.25,0,0,1-1.143.638,4.914,4.914,0,0,1-1.563.229Zm0-1.051h1.57a3.051,3.051,0,0,0,1-.15,2.051,2.051,0,0,0,.727-.42,1.743,1.743,0,0,0,.444-.645,2.2,2.2,0,0,0,.15-.826,1.877,1.877,0,0,0-.577-1.461,2.517,2.517,0,0,0-1.744-.526h-1.57Zm10.389.628V-.977h-1.317v-9.782h2.765a6.04,6.04,0,0,1,1.6.188,3.061,3.061,0,0,1,1.116.543,2.173,2.173,0,0,1,.652.857,2.863,2.863,0,0,1,.212,1.123,2.815,2.815,0,0,1-.164.969,2.56,2.56,0,0,1-.474.809,2.838,2.838,0,0,1-.758.611,3.751,3.751,0,0,1-1.014.382,1.4,1.4,0,0,1,.437.416l2.853,3.884h-1.174a.579.579,0,0,1-.532-.28l-2.539-3.495a.74.74,0,0,0-.253-.235.911.911,0,0,0-.41-.072Zm0-.962h1.386a3.373,3.373,0,0,0,1.02-.14,2.076,2.076,0,0,0,.737-.4,1.642,1.642,0,0,0,.447-.611,2,2,0,0,0,.15-.785,1.559,1.559,0,0,0-.577-1.317,2.788,2.788,0,0,0-1.717-.444h-1.447ZM-12.963-.977h-1.324v-9.782h1.324ZM-1.4-3a.274.274,0,0,1,.2.089l.519.567A4.185,4.185,0,0,1-2.14-1.257a4.969,4.969,0,0,1-2.065.389,4.861,4.861,0,0,1-1.918-.365A4.2,4.2,0,0,1-7.591-2.257a4.628,4.628,0,0,1-.942-1.58,5.9,5.9,0,0,1-.334-2.027,5.548,5.548,0,0,1,.358-2.027A4.632,4.632,0,0,1-7.5-9.475,4.505,4.505,0,0,1-5.949-10.5a5.286,5.286,0,0,1,2-.365,4.709,4.709,0,0,1,1.86.334A4.7,4.7,0,0,1-.7-9.625l-.43.608a.469.469,0,0,1-.109.113.3.3,0,0,1-.177.044.346.346,0,0,1-.188-.065q-.1-.065-.235-.16t-.321-.2A2.811,2.811,0,0,0-2.6-9.5a3.609,3.609,0,0,0-.587-.16,4.086,4.086,0,0,0-.771-.065,3.724,3.724,0,0,0-1.437.27,3.217,3.217,0,0,0-1.123.768,3.494,3.494,0,0,0-.734,1.215,4.633,4.633,0,0,0-.263,1.6,4.719,4.719,0,0,0,.263,1.631,3.6,3.6,0,0,0,.717,1.212,3.022,3.022,0,0,0,1.075.754,3.437,3.437,0,0,0,1.338.259,5.433,5.433,0,0,0,.785-.051,3.224,3.224,0,0,0,.645-.16A2.73,2.73,0,0,0-2.14-2.5a4.324,4.324,0,0,0,.515-.4A.347.347,0,0,1-1.4-3ZM4.675-.977H3.351v-9.782H4.675Zm5.352-9.782a.594.594,0,0,1,.263.044.68.68,0,0,1,.195.181L16.15-3.161q-.02-.177-.027-.345t-.007-.324v-6.928h1.16V-.977h-.669a.569.569,0,0,1-.263-.055.664.664,0,0,1-.208-.184L10.477-8.581q.014.171.02.334t.007.3V-.977H9.344v-9.782ZM26.075-1.939a6.481,6.481,0,0,0,.727-.038,4.621,4.621,0,0,0,.625-.113,4.254,4.254,0,0,0,.553-.181q.259-.106.519-.242V-4.67H26.983a.289.289,0,0,1-.208-.075.245.245,0,0,1-.078-.184V-5.68h3v3.754a5.427,5.427,0,0,1-.768.464,5.23,5.23,0,0,1-.853.331,6.178,6.178,0,0,1-.973.2,9.108,9.108,0,0,1-1.126.065,5.082,5.082,0,0,1-1.952-.365A4.5,4.5,0,0,1,22.5-2.257a4.648,4.648,0,0,1-1-1.58,5.548,5.548,0,0,1-.358-2.027,5.685,5.685,0,0,1,.352-2.041,4.49,4.49,0,0,1,1-1.58,4.484,4.484,0,0,1,1.577-1.02,5.647,5.647,0,0,1,2.072-.362,6.4,6.4,0,0,1,1.079.085,5.042,5.042,0,0,1,.925.246,4.309,4.309,0,0,1,.788.389,4.817,4.817,0,0,1,.676.515l-.375.6a.345.345,0,0,1-.3.184.484.484,0,0,1-.239-.075q-.171-.1-.382-.232a3.274,3.274,0,0,0-.515-.263,4.149,4.149,0,0,0-.717-.215,4.718,4.718,0,0,0-.98-.089,3.967,3.967,0,0,0-1.495.27,3.162,3.162,0,0,0-1.14.771,3.414,3.414,0,0,0-.724,1.215,4.774,4.774,0,0,0-.253,1.6,4.85,4.85,0,0,0,.263,1.655,3.5,3.5,0,0,0,.741,1.232,3.2,3.2,0,0,0,1.133.771A3.811,3.811,0,0,0,26.075-1.939Z" transform="translate(10.868 29.699) rotate(-90)" fill="#fff"/>
</svg>
