<svg id="Component_11_1" data-name="Component 11 – 1" xmlns="http://www.w3.org/2000/svg" width="10" height="85.055" viewBox="0 0 10 85.055">
  <path id="Path_28812" data-name="Path 28812" d="M-44.988-4.64V-.983H-46.3v-9.775h2.885a5.414,5.414,0,0,1,1.613.215,3.1,3.1,0,0,1,1.136.611A2.46,2.46,0,0,1-40-8.978a3.362,3.362,0,0,1,.222,1.248,3.181,3.181,0,0,1-.239,1.248,2.686,2.686,0,0,1-.7.975,3.248,3.248,0,0,1-1.143.638,4.911,4.911,0,0,1-1.562.229Zm0-1.05h1.569a3.049,3.049,0,0,0,1-.15,2.049,2.049,0,0,0,.726-.42A1.742,1.742,0,0,0-41.25-6.9a2.2,2.2,0,0,0,.15-.825,1.875,1.875,0,0,0-.576-1.46,2.516,2.516,0,0,0-1.743-.525h-1.569Zm10.382.628V-.983h-1.317v-9.775h2.763a6.036,6.036,0,0,1,1.6.188,3.059,3.059,0,0,1,1.115.542,2.171,2.171,0,0,1,.651.856,2.861,2.861,0,0,1,.211,1.122,2.813,2.813,0,0,1-.164.969,2.558,2.558,0,0,1-.474.808,2.836,2.836,0,0,1-.757.611,3.748,3.748,0,0,1-1.013.382,1.4,1.4,0,0,1,.437.416L-28.7-.983h-1.173a.579.579,0,0,1-.532-.28l-2.538-3.492a.739.739,0,0,0-.252-.235.91.91,0,0,0-.409-.072Zm0-.962h1.385a3.371,3.371,0,0,0,1.02-.14,2.075,2.075,0,0,0,.737-.4,1.641,1.641,0,0,0,.447-.611,1.994,1.994,0,0,0,.15-.784,1.558,1.558,0,0,0-.576-1.317,2.786,2.786,0,0,0-1.716-.443h-1.446Zm18.145.157a5.642,5.642,0,0,1-.348,2.016,4.616,4.616,0,0,1-.982,1.579,4.39,4.39,0,0,1-1.525,1.027,5.141,5.141,0,0,1-1.968.365,5.115,5.115,0,0,1-1.965-.365A4.4,4.4,0,0,1-24.77-2.273a4.616,4.616,0,0,1-.982-1.579A5.642,5.642,0,0,1-26.1-5.868a5.642,5.642,0,0,1,.348-2.016,4.653,4.653,0,0,1,.982-1.583A4.414,4.414,0,0,1-23.249-10.5a5.074,5.074,0,0,1,1.965-.368,5.1,5.1,0,0,1,1.968.368,4.407,4.407,0,0,1,1.525,1.033,4.653,4.653,0,0,1,.982,1.583A5.642,5.642,0,0,1-16.462-5.868Zm-1.357,0a4.968,4.968,0,0,0-.246-1.617,3.419,3.419,0,0,0-.7-1.211,3.019,3.019,0,0,0-1.091-.761,3.705,3.705,0,0,0-1.432-.266,3.686,3.686,0,0,0-1.426.266,3.052,3.052,0,0,0-1.095.761,3.392,3.392,0,0,0-.7,1.211,4.968,4.968,0,0,0-.246,1.617A4.937,4.937,0,0,0-24.5-4.254a3.4,3.4,0,0,0,.7,1.207,3.015,3.015,0,0,0,1.095.757,3.729,3.729,0,0,0,1.426.263,3.747,3.747,0,0,0,1.432-.263,2.984,2.984,0,0,0,1.091-.757,3.424,3.424,0,0,0,.7-1.207A4.937,4.937,0,0,0-17.819-5.868Zm13.683,0a5.5,5.5,0,0,1-.348,2,4.432,4.432,0,0,1-.982,1.542,4.379,4.379,0,0,1-1.521.992,5.291,5.291,0,0,1-1.965.351h-3.656v-9.775h3.656a5.291,5.291,0,0,1,1.965.351,4.355,4.355,0,0,1,1.521,1,4.468,4.468,0,0,1,.982,1.545A5.5,5.5,0,0,1-4.136-5.868Zm-1.357,0a4.906,4.906,0,0,0-.246-1.61,3.393,3.393,0,0,0-.7-1.2,2.967,2.967,0,0,0-1.091-.75,3.772,3.772,0,0,0-1.426-.259h-2.326v7.633h2.326a3.772,3.772,0,0,0,1.426-.259,2.987,2.987,0,0,0,1.091-.747,3.357,3.357,0,0,0,.7-1.2A4.906,4.906,0,0,0-5.493-5.868Zm9,3.834a2.729,2.729,0,0,0,1.085-.2A2.275,2.275,0,0,0,5.4-2.812a2.506,2.506,0,0,0,.5-.88,3.478,3.478,0,0,0,.174-1.126v-5.941H7.4v5.941A4.458,4.458,0,0,1,7.13-3.248,3.645,3.645,0,0,1,6.359-2a3.525,3.525,0,0,1-1.224.829,4.2,4.2,0,0,1-1.623.3,4.2,4.2,0,0,1-1.623-.3A3.56,3.56,0,0,1,.66-2,3.619,3.619,0,0,1-.115-3.248,4.458,4.458,0,0,1-.384-4.817v-5.941H.932v5.935A3.478,3.478,0,0,0,1.106-3.7a2.506,2.506,0,0,0,.5.88,2.3,2.3,0,0,0,.812.576A2.715,2.715,0,0,0,3.511-2.034ZM18.606-3a.274.274,0,0,1,.2.089l.518.566a4.182,4.182,0,0,1-1.456,1.085A4.966,4.966,0,0,1,15.8-.874a4.858,4.858,0,0,1-1.917-.365,4.2,4.2,0,0,1-1.467-1.023,4.625,4.625,0,0,1-.941-1.579,5.9,5.9,0,0,1-.334-2.026A5.545,5.545,0,0,1,11.5-7.893a4.629,4.629,0,0,1,1.006-1.583A4.5,4.5,0,0,1,14.06-10.5a5.282,5.282,0,0,1,2-.365,4.705,4.705,0,0,1,1.859.334,4.7,4.7,0,0,1,1.388.907l-.43.607a.468.468,0,0,1-.109.113.3.3,0,0,1-.177.044.345.345,0,0,1-.188-.065q-.1-.065-.235-.16t-.321-.2a2.809,2.809,0,0,0-.437-.2,3.607,3.607,0,0,0-.587-.16,4.084,4.084,0,0,0-.771-.065,3.722,3.722,0,0,0-1.436.269,3.215,3.215,0,0,0-1.122.767,3.491,3.491,0,0,0-.733,1.214,4.63,4.63,0,0,0-.263,1.6,4.716,4.716,0,0,0,.263,1.63,3.6,3.6,0,0,0,.716,1.211,3.02,3.02,0,0,0,1.074.754,3.434,3.434,0,0,0,1.337.259,5.429,5.429,0,0,0,.784-.051,3.222,3.222,0,0,0,.645-.16,2.728,2.728,0,0,0,.553-.276,4.321,4.321,0,0,0,.515-.4A.347.347,0,0,1,18.606-3Zm11.16-7.756v1.112H26.608V-.983H25.284V-9.646H22.112v-1.112ZM38.211-9.23a.529.529,0,0,1-.13.153.288.288,0,0,1-.177.051.472.472,0,0,1-.269-.116,4.294,4.294,0,0,0-.389-.256,3.155,3.155,0,0,0-.566-.256,2.436,2.436,0,0,0-.8-.116,2.37,2.37,0,0,0-.784.119,1.668,1.668,0,0,0-.57.324,1.33,1.33,0,0,0-.344.481,1.526,1.526,0,0,0-.116.6,1.1,1.1,0,0,0,.2.679,1.734,1.734,0,0,0,.532.46,4.076,4.076,0,0,0,.75.331q.42.14.859.29t.859.338a3.023,3.023,0,0,1,.75.474,2.161,2.161,0,0,1,.532.7,2.338,2.338,0,0,1,.2,1.023,3.3,3.3,0,0,1-.218,1.2,2.776,2.776,0,0,1-.638.979,2.984,2.984,0,0,1-1.03.655,3.789,3.789,0,0,1-1.388.239,4.239,4.239,0,0,1-1.729-.344,4.056,4.056,0,0,1-1.334-.931l.382-.628a.5.5,0,0,1,.133-.126.312.312,0,0,1,.174-.051.543.543,0,0,1,.327.153,5.455,5.455,0,0,0,.46.338,3.517,3.517,0,0,0,.668.338,2.638,2.638,0,0,0,.958.153,2.52,2.52,0,0,0,.839-.13,1.782,1.782,0,0,0,.624-.365,1.581,1.581,0,0,0,.392-.563,1.881,1.881,0,0,0,.136-.73,1.225,1.225,0,0,0-.2-.726,1.668,1.668,0,0,0-.529-.474,3.7,3.7,0,0,0-.747-.324l-.859-.273a8.667,8.667,0,0,1-.859-.324,2.793,2.793,0,0,1-.747-.477,2.194,2.194,0,0,1-.529-.733,2.612,2.612,0,0,1-.2-1.088,2.589,2.589,0,0,1,.2-1,2.585,2.585,0,0,1,.583-.859,2.827,2.827,0,0,1,.945-.6,3.461,3.461,0,0,1,1.293-.225,4.138,4.138,0,0,1,1.494.259,3.44,3.44,0,0,1,1.18.75Z" transform="translate(10.868 38.75) rotate(-90)" fill="#fff"/>
</svg>
