<svg xmlns="http://www.w3.org/2000/svg" width="10" height="197.919" viewBox="0 0 10 197.919">
  <path id="Path_28815" data-name="Path 28815" d="M-102.524-10.758v1.078h-4.693v3.247h3.8V-5.4h-3.8v3.336h4.693V-.983h-6.023v-9.775ZM-97.251-2.1h4.229V-.983h-5.553v-9.775h1.323Zm13.759-8.663v1.078h-4.693v3.247h3.8V-5.4h-3.8v3.336h4.693V-.983h-6.023v-9.775ZM-72.654-3a.274.274,0,0,1,.2.089l.518.566a4.182,4.182,0,0,1-1.456,1.085,4.966,4.966,0,0,1-2.063.389,4.858,4.858,0,0,1-1.917-.365,4.2,4.2,0,0,1-1.467-1.023,4.625,4.625,0,0,1-.941-1.579,5.9,5.9,0,0,1-.334-2.026,5.545,5.545,0,0,1,.358-2.026,4.629,4.629,0,0,1,1.006-1.583A4.5,4.5,0,0,1-77.2-10.5a5.282,5.282,0,0,1,2-.365,4.705,4.705,0,0,1,1.859.334,4.7,4.7,0,0,1,1.388.907l-.43.607a.468.468,0,0,1-.109.113.3.3,0,0,1-.177.044.345.345,0,0,1-.188-.065q-.1-.065-.235-.16t-.321-.2a2.809,2.809,0,0,0-.437-.2,3.607,3.607,0,0,0-.587-.16,4.084,4.084,0,0,0-.771-.065,3.722,3.722,0,0,0-1.436.269,3.215,3.215,0,0,0-1.122.767A3.492,3.492,0,0,0-78.5-7.471a4.63,4.63,0,0,0-.263,1.6,4.716,4.716,0,0,0,.263,1.63,3.6,3.6,0,0,0,.716,1.211,3.02,3.02,0,0,0,1.074.754,3.434,3.434,0,0,0,1.337.259,5.429,5.429,0,0,0,.784-.051,3.222,3.222,0,0,0,.645-.16,2.728,2.728,0,0,0,.553-.276,4.321,4.321,0,0,0,.515-.4A.347.347,0,0,1-72.654-3Zm11.16-7.756v1.112h-3.158V-.983h-1.323V-9.646h-3.172v-1.112Zm4.891,5.7V-.983H-57.92v-9.775h2.763a6.036,6.036,0,0,1,1.6.188,3.059,3.059,0,0,1,1.115.542,2.171,2.171,0,0,1,.651.856,2.861,2.861,0,0,1,.211,1.122,2.813,2.813,0,0,1-.164.969,2.558,2.558,0,0,1-.474.808,2.836,2.836,0,0,1-.757.611,3.748,3.748,0,0,1-1.013.382,1.4,1.4,0,0,1,.437.416L-50.7-.983h-1.173a.579.579,0,0,1-.532-.28l-2.538-3.492a.739.739,0,0,0-.252-.235.91.91,0,0,0-.409-.072Zm0-.962h1.385a3.371,3.371,0,0,0,1.02-.14,2.075,2.075,0,0,0,.737-.4,1.641,1.641,0,0,0,.447-.611,1.994,1.994,0,0,0,.15-.784,1.558,1.558,0,0,0-.576-1.317,2.786,2.786,0,0,0-1.716-.443H-56.6Zm18.145.157a5.642,5.642,0,0,1-.348,2.016,4.616,4.616,0,0,1-.982,1.579,4.39,4.39,0,0,1-1.525,1.027,5.141,5.141,0,0,1-1.968.365,5.115,5.115,0,0,1-1.965-.365,4.4,4.4,0,0,1-1.521-1.027,4.616,4.616,0,0,1-.982-1.579A5.642,5.642,0,0,1-48.1-5.868a5.642,5.642,0,0,1,.348-2.016,4.653,4.653,0,0,1,.982-1.583A4.414,4.414,0,0,1-45.246-10.5a5.074,5.074,0,0,1,1.965-.368,5.1,5.1,0,0,1,1.968.368,4.407,4.407,0,0,1,1.525,1.033,4.653,4.653,0,0,1,.982,1.583A5.642,5.642,0,0,1-38.459-5.868Zm-1.357,0a4.968,4.968,0,0,0-.246-1.617,3.419,3.419,0,0,0-.7-1.211,3.019,3.019,0,0,0-1.091-.761,3.705,3.705,0,0,0-1.432-.266,3.686,3.686,0,0,0-1.426.266,3.052,3.052,0,0,0-1.095.761,3.392,3.392,0,0,0-.7,1.211,4.968,4.968,0,0,0-.246,1.617A4.937,4.937,0,0,0-46.5-4.254a3.4,3.4,0,0,0,.7,1.207,3.016,3.016,0,0,0,1.095.757,3.729,3.729,0,0,0,1.426.263,3.747,3.747,0,0,0,1.432-.263,2.984,2.984,0,0,0,1.091-.757,3.424,3.424,0,0,0,.7-1.207A4.937,4.937,0,0,0-39.816-5.868Zm5.894-4.891a.594.594,0,0,1,.263.044.679.679,0,0,1,.194.181L-27.8-3.166q-.02-.177-.027-.344t-.007-.324v-6.924h1.16V-.983h-.668a.569.569,0,0,1-.263-.055.663.663,0,0,1-.208-.184l-5.655-7.36q.014.171.02.334t.007.3V-.983H-34.6v-9.775ZM-20.676-.983H-22v-9.775h1.323ZM-9.12-3a.274.274,0,0,1,.2.089l.518.566A4.182,4.182,0,0,1-9.861-1.263a4.966,4.966,0,0,1-2.063.389,4.858,4.858,0,0,1-1.917-.365,4.2,4.2,0,0,1-1.467-1.023,4.625,4.625,0,0,1-.941-1.579,5.9,5.9,0,0,1-.334-2.026,5.545,5.545,0,0,1,.358-2.026,4.629,4.629,0,0,1,1.006-1.583A4.5,4.5,0,0,1-13.667-10.5a5.282,5.282,0,0,1,2-.365,4.705,4.705,0,0,1,1.859.334,4.7,4.7,0,0,1,1.388.907l-.43.607a.468.468,0,0,1-.109.113.3.3,0,0,1-.177.044.345.345,0,0,1-.188-.065q-.1-.065-.235-.16t-.321-.2a2.81,2.81,0,0,0-.437-.2,3.607,3.607,0,0,0-.587-.16,4.084,4.084,0,0,0-.771-.065,3.722,3.722,0,0,0-1.436.269,3.215,3.215,0,0,0-1.122.767,3.492,3.492,0,0,0-.733,1.214,4.63,4.63,0,0,0-.263,1.6,4.716,4.716,0,0,0,.263,1.63,3.6,3.6,0,0,0,.716,1.211,3.02,3.02,0,0,0,1.074.754,3.434,3.434,0,0,0,1.337.259,5.429,5.429,0,0,0,.784-.051,3.222,3.222,0,0,0,.645-.16A2.728,2.728,0,0,0-9.861-2.5a4.321,4.321,0,0,0,.515-.4A.347.347,0,0,1-9.12-3ZM5.068-9.23a.529.529,0,0,1-.13.153.288.288,0,0,1-.177.051.472.472,0,0,1-.269-.116A4.294,4.294,0,0,0,4.1-9.4a3.155,3.155,0,0,0-.566-.256,2.436,2.436,0,0,0-.8-.116,2.37,2.37,0,0,0-.784.119,1.668,1.668,0,0,0-.57.324,1.33,1.33,0,0,0-.344.481,1.526,1.526,0,0,0-.116.6,1.1,1.1,0,0,0,.2.679,1.734,1.734,0,0,0,.532.46,4.076,4.076,0,0,0,.75.331q.42.14.859.29t.859.338a3.023,3.023,0,0,1,.75.474,2.161,2.161,0,0,1,.532.7,2.338,2.338,0,0,1,.2,1.023,3.3,3.3,0,0,1-.218,1.2,2.776,2.776,0,0,1-.638.979,2.984,2.984,0,0,1-1.03.655,3.789,3.789,0,0,1-1.388.239A4.239,4.239,0,0,1,.6-1.219,4.056,4.056,0,0,1-.73-2.15l.382-.628A.5.5,0,0,1-.215-2.9a.312.312,0,0,1,.174-.051A.543.543,0,0,1,.286-2.8a5.456,5.456,0,0,0,.46.338,3.517,3.517,0,0,0,.668.338,2.638,2.638,0,0,0,.958.153,2.52,2.52,0,0,0,.839-.13,1.782,1.782,0,0,0,.624-.365,1.581,1.581,0,0,0,.392-.563,1.881,1.881,0,0,0,.136-.73,1.225,1.225,0,0,0-.2-.726,1.668,1.668,0,0,0-.529-.474,3.7,3.7,0,0,0-.747-.324l-.859-.273a8.667,8.667,0,0,1-.859-.324,2.793,2.793,0,0,1-.747-.477,2.194,2.194,0,0,1-.529-.733,2.612,2.612,0,0,1-.2-1.088,2.589,2.589,0,0,1,.2-1,2.585,2.585,0,0,1,.583-.859,2.827,2.827,0,0,1,.945-.6,3.461,3.461,0,0,1,1.293-.225,4.138,4.138,0,0,1,1.494.259,3.44,3.44,0,0,1,1.18.75ZM10.907-.983H9.583v-9.775h1.323Zm9.025-.962a6.476,6.476,0,0,0,.726-.038,4.618,4.618,0,0,0,.624-.113,4.251,4.251,0,0,0,.553-.181q.259-.106.518-.242V-4.674H20.839a.288.288,0,0,1-.208-.075.245.245,0,0,1-.078-.184v-.75h3v3.752a5.423,5.423,0,0,1-.767.464,5.227,5.227,0,0,1-.853.331,6.174,6.174,0,0,1-.972.2,9.1,9.1,0,0,1-1.126.065,5.078,5.078,0,0,1-1.951-.365,4.492,4.492,0,0,1-1.528-1.023,4.645,4.645,0,0,1-1-1.579A5.545,5.545,0,0,1,15-5.868a5.681,5.681,0,0,1,.351-2.04,4.487,4.487,0,0,1,1-1.579,4.481,4.481,0,0,1,1.576-1.02A5.643,5.643,0,0,1,20-10.868a6.394,6.394,0,0,1,1.078.085,5.038,5.038,0,0,1,.924.246,4.306,4.306,0,0,1,.788.389,4.814,4.814,0,0,1,.675.515l-.375.6a.345.345,0,0,1-.3.184.483.483,0,0,1-.239-.075q-.171-.1-.382-.232a3.272,3.272,0,0,0-.515-.263,4.147,4.147,0,0,0-.716-.215,4.715,4.715,0,0,0-.979-.089,3.964,3.964,0,0,0-1.494.269,3.16,3.16,0,0,0-1.139.771A3.411,3.411,0,0,0,16.6-7.467a4.77,4.77,0,0,0-.252,1.6,4.847,4.847,0,0,0,.263,1.654,3.493,3.493,0,0,0,.74,1.231,3.194,3.194,0,0,0,1.132.771A3.808,3.808,0,0,0,19.931-1.945Zm8.383-8.813a.594.594,0,0,1,.263.044.679.679,0,0,1,.194.181l5.662,7.367q-.02-.177-.027-.344T34.4-3.835v-6.924h1.16V-.983H34.89a.569.569,0,0,1-.263-.055.663.663,0,0,1-.208-.184l-5.655-7.36q.014.171.02.334t.007.3V-.983h-1.16v-9.775ZM48.035-.983H47.012a.44.44,0,0,1-.286-.089.545.545,0,0,1-.164-.225l-.914-2.36H41.261L40.347-1.3a.533.533,0,0,1-.164.218.436.436,0,0,1-.286.1H38.874l3.909-9.775h1.344ZM41.63-4.612h3.649L43.744-8.589a7.433,7.433,0,0,1-.293-.921q-.075.28-.147.515t-.14.413Zm15.443-6.146v1.112H53.915V-.983H52.592V-9.646H49.42v-1.112Zm7.237,8.724a2.729,2.729,0,0,0,1.085-.2,2.275,2.275,0,0,0,.808-.573,2.506,2.506,0,0,0,.5-.88,3.478,3.478,0,0,0,.174-1.126v-5.941H68.2v5.941a4.458,4.458,0,0,1-.269,1.569A3.645,3.645,0,0,1,67.158-2a3.525,3.525,0,0,1-1.224.829,4.2,4.2,0,0,1-1.623.3,4.2,4.2,0,0,1-1.623-.3A3.56,3.56,0,0,1,61.459-2a3.619,3.619,0,0,1-.774-1.252,4.458,4.458,0,0,1-.269-1.569v-5.941h1.317v5.935A3.478,3.478,0,0,0,61.906-3.7a2.506,2.506,0,0,0,.5.88,2.3,2.3,0,0,0,.812.576A2.715,2.715,0,0,0,64.311-2.034ZM73.97-5.063V-.983H72.653v-9.775h2.763a6.036,6.036,0,0,1,1.6.188,3.059,3.059,0,0,1,1.115.542,2.171,2.171,0,0,1,.651.856A2.861,2.861,0,0,1,79-8.05a2.813,2.813,0,0,1-.164.969,2.558,2.558,0,0,1-.474.808,2.836,2.836,0,0,1-.757.611,3.748,3.748,0,0,1-1.013.382,1.4,1.4,0,0,1,.437.416L79.877-.983H78.7a.579.579,0,0,1-.532-.28L75.634-4.756a.739.739,0,0,0-.252-.235.91.91,0,0,0-.409-.072Zm0-.962h1.385a3.371,3.371,0,0,0,1.02-.14,2.075,2.075,0,0,0,.737-.4,1.641,1.641,0,0,0,.447-.611,1.994,1.994,0,0,0,.15-.784,1.558,1.558,0,0,0-.576-1.317,2.786,2.786,0,0,0-1.716-.443H73.97Zm15.4-4.734v1.078H84.679v3.247h3.8V-5.4h-3.8v3.336h4.693V-.983H83.349v-9.775Z" transform="translate(10.868 89.372) rotate(-90)" fill="#fff"/>
</svg>
