<svg xmlns="http://www.w3.org/2000/svg" width="10" height="91.235" viewBox="0 0 10 91.235">
  <path id="Path_28813" data-name="Path 28813" d="M-44.414-9.23a.529.529,0,0,1-.13.153.288.288,0,0,1-.177.051.472.472,0,0,1-.269-.116A4.3,4.3,0,0,0-45.38-9.4a3.155,3.155,0,0,0-.566-.256,2.436,2.436,0,0,0-.8-.116,2.37,2.37,0,0,0-.784.119,1.668,1.668,0,0,0-.57.324,1.33,1.33,0,0,0-.344.481,1.526,1.526,0,0,0-.116.6,1.1,1.1,0,0,0,.2.679,1.734,1.734,0,0,0,.532.46,4.076,4.076,0,0,0,.75.331q.42.14.859.29t.859.338a3.023,3.023,0,0,1,.75.474,2.161,2.161,0,0,1,.532.7,2.338,2.338,0,0,1,.2,1.023,3.3,3.3,0,0,1-.218,1.2,2.776,2.776,0,0,1-.638.979,2.984,2.984,0,0,1-1.03.655,3.789,3.789,0,0,1-1.388.239,4.239,4.239,0,0,1-1.729-.344,4.056,4.056,0,0,1-1.334-.931l.382-.628A.5.5,0,0,1-49.7-2.9a.312.312,0,0,1,.174-.051A.543.543,0,0,1-49.2-2.8a5.455,5.455,0,0,0,.46.338,3.517,3.517,0,0,0,.668.338,2.638,2.638,0,0,0,.958.153,2.52,2.52,0,0,0,.839-.13,1.782,1.782,0,0,0,.624-.365,1.581,1.581,0,0,0,.392-.563,1.881,1.881,0,0,0,.136-.73,1.225,1.225,0,0,0-.2-.726,1.668,1.668,0,0,0-.529-.474,3.7,3.7,0,0,0-.747-.324l-.859-.273a8.667,8.667,0,0,1-.859-.324,2.793,2.793,0,0,1-.747-.477,2.194,2.194,0,0,1-.529-.733,2.612,2.612,0,0,1-.2-1.088,2.589,2.589,0,0,1,.2-1,2.584,2.584,0,0,1,.583-.859,2.827,2.827,0,0,1,.945-.6,3.461,3.461,0,0,1,1.293-.225,4.138,4.138,0,0,1,1.494.259,3.44,3.44,0,0,1,1.18.75Zm13.349,3.363a5.642,5.642,0,0,1-.348,2.016A4.616,4.616,0,0,1-32.4-2.273,4.39,4.39,0,0,1-33.92-1.246a5.141,5.141,0,0,1-1.968.365,5.115,5.115,0,0,1-1.965-.365,4.4,4.4,0,0,1-1.521-1.027,4.616,4.616,0,0,1-.982-1.579A5.642,5.642,0,0,1-40.7-5.868a5.642,5.642,0,0,1,.348-2.016,4.653,4.653,0,0,1,.982-1.583A4.414,4.414,0,0,1-37.852-10.5a5.074,5.074,0,0,1,1.965-.368,5.1,5.1,0,0,1,1.968.368A4.407,4.407,0,0,1-32.4-9.466a4.653,4.653,0,0,1,.982,1.583A5.642,5.642,0,0,1-31.065-5.868Zm-1.357,0a4.968,4.968,0,0,0-.246-1.617,3.419,3.419,0,0,0-.7-1.211,3.019,3.019,0,0,0-1.091-.761,3.705,3.705,0,0,0-1.432-.266,3.686,3.686,0,0,0-1.426.266,3.052,3.052,0,0,0-1.095.761,3.392,3.392,0,0,0-.7,1.211,4.968,4.968,0,0,0-.246,1.617,4.937,4.937,0,0,0,.246,1.613,3.4,3.4,0,0,0,.7,1.207,3.016,3.016,0,0,0,1.095.757,3.729,3.729,0,0,0,1.426.263,3.747,3.747,0,0,0,1.432-.263,2.984,2.984,0,0,0,1.091-.757,3.424,3.424,0,0,0,.7-1.207A4.937,4.937,0,0,0-32.423-5.868ZM-25.888-2.1h4.229V-.983h-5.553v-9.775h1.323Zm11.535.061a2.729,2.729,0,0,0,1.085-.2,2.275,2.275,0,0,0,.808-.573,2.506,2.506,0,0,0,.5-.88,3.478,3.478,0,0,0,.174-1.126v-5.941h1.317v5.941a4.458,4.458,0,0,1-.269,1.569A3.645,3.645,0,0,1-11.505-2a3.525,3.525,0,0,1-1.224.829,4.2,4.2,0,0,1-1.623.3,4.2,4.2,0,0,1-1.623-.3A3.56,3.56,0,0,1-17.2-2a3.619,3.619,0,0,1-.774-1.252,4.458,4.458,0,0,1-.269-1.569v-5.941h1.317v5.935A3.478,3.478,0,0,0-16.758-3.7a2.506,2.506,0,0,0,.5.88,2.3,2.3,0,0,0,.812.576A2.715,2.715,0,0,0-14.353-2.034ZM.511-10.758v1.112H-2.648V-.983H-3.971V-9.646H-7.143v-1.112ZM5.517-.983H4.194v-9.775H5.517ZM19.262-5.868a5.642,5.642,0,0,1-.348,2.016,4.616,4.616,0,0,1-.982,1.579,4.39,4.39,0,0,1-1.525,1.027,5.141,5.141,0,0,1-1.968.365,5.115,5.115,0,0,1-1.965-.365,4.4,4.4,0,0,1-1.521-1.027,4.616,4.616,0,0,1-.982-1.579,5.642,5.642,0,0,1-.348-2.016,5.642,5.642,0,0,1,.348-2.016,4.653,4.653,0,0,1,.982-1.583A4.414,4.414,0,0,1,12.475-10.5a5.074,5.074,0,0,1,1.965-.368,5.1,5.1,0,0,1,1.968.368,4.407,4.407,0,0,1,1.525,1.033,4.653,4.653,0,0,1,.982,1.583A5.642,5.642,0,0,1,19.262-5.868Zm-1.357,0a4.968,4.968,0,0,0-.246-1.617,3.419,3.419,0,0,0-.7-1.211,3.019,3.019,0,0,0-1.091-.761,3.705,3.705,0,0,0-1.432-.266,3.686,3.686,0,0,0-1.426.266,3.052,3.052,0,0,0-1.095.761,3.392,3.392,0,0,0-.7,1.211,4.968,4.968,0,0,0-.246,1.617,4.937,4.937,0,0,0,.246,1.613,3.4,3.4,0,0,0,.7,1.207,3.015,3.015,0,0,0,1.095.757,3.729,3.729,0,0,0,1.426.263,3.747,3.747,0,0,0,1.432-.263,2.984,2.984,0,0,0,1.091-.757,3.424,3.424,0,0,0,.7-1.207A4.937,4.937,0,0,0,17.9-5.868ZM23.8-10.758a.594.594,0,0,1,.263.044.679.679,0,0,1,.194.181l5.662,7.367q-.02-.177-.027-.344t-.007-.324v-6.924h1.16V-.983h-.668a.569.569,0,0,1-.263-.055.663.663,0,0,1-.208-.184l-5.655-7.36q.014.171.02.334t.007.3V-.983h-1.16v-9.775ZM40.483-9.23a.529.529,0,0,1-.13.153.288.288,0,0,1-.177.051.472.472,0,0,1-.269-.116,4.294,4.294,0,0,0-.389-.256,3.155,3.155,0,0,0-.566-.256,2.436,2.436,0,0,0-.8-.116,2.37,2.37,0,0,0-.784.119,1.668,1.668,0,0,0-.57.324,1.33,1.33,0,0,0-.344.481,1.526,1.526,0,0,0-.116.6,1.1,1.1,0,0,0,.2.679,1.734,1.734,0,0,0,.532.46,4.076,4.076,0,0,0,.75.331q.42.14.859.29t.859.338a3.023,3.023,0,0,1,.75.474,2.161,2.161,0,0,1,.532.7,2.338,2.338,0,0,1,.2,1.023,3.3,3.3,0,0,1-.218,1.2,2.776,2.776,0,0,1-.638.979,2.984,2.984,0,0,1-1.03.655,3.789,3.789,0,0,1-1.388.239,4.239,4.239,0,0,1-1.729-.344,4.056,4.056,0,0,1-1.334-.931l.382-.628A.5.5,0,0,1,35.2-2.9a.312.312,0,0,1,.174-.051A.543.543,0,0,1,35.7-2.8a5.455,5.455,0,0,0,.46.338,3.517,3.517,0,0,0,.668.338,2.638,2.638,0,0,0,.958.153,2.52,2.52,0,0,0,.839-.13,1.782,1.782,0,0,0,.624-.365,1.581,1.581,0,0,0,.392-.563,1.881,1.881,0,0,0,.136-.73,1.225,1.225,0,0,0-.2-.726,1.668,1.668,0,0,0-.529-.474,3.7,3.7,0,0,0-.747-.324l-.859-.273a8.667,8.667,0,0,1-.859-.324,2.793,2.793,0,0,1-.747-.477,2.194,2.194,0,0,1-.529-.733,2.612,2.612,0,0,1-.2-1.088,2.589,2.589,0,0,1,.2-1,2.584,2.584,0,0,1,.583-.859,2.827,2.827,0,0,1,.945-.6,3.461,3.461,0,0,1,1.293-.225,4.138,4.138,0,0,1,1.494.259,3.44,3.44,0,0,1,1.18.75Z" transform="translate(10.868 41.022) rotate(-90)" fill="#fff"/>
</svg>
