<svg xmlns="http://www.w3.org/2000/svg" xmlns:xlink="http://www.w3.org/1999/xlink" width="129.362" height="60" viewBox="0 0 129.362 60">
  <defs>
    <clipPath id="clip-path">
      <rect id="Rectangle_986" data-name="Rectangle 986" width="129.362" height="60" fill="none"/>
    </clipPath>
  </defs>
  <g id="Group_4753" data-name="Group 4753" transform="translate(0 0)">
    <g id="Group_4752" data-name="Group 4752" transform="translate(0 0)" clip-path="url(#clip-path)">
      <path id="Path_27397" data-name="Path 27397" d="M57.259,23.966a26.615,26.615,0,0,0-.726-2.946c-.147-.48-.281-.964-.453-1.426a22.054,22.054,0,0,0-4.792-7.744,20.7,20.7,0,0,0-7.4-4.9,25.745,25.745,0,0,0-9.551-1.707H21.382V8.129H34.338a21.647,21.647,0,0,1,8.094,1.459,17.08,17.08,0,0,1,6.234,4.239,19.314,19.314,0,0,1,4.012,6.807,23.227,23.227,0,0,1,.788,2.915,28.837,28.837,0,0,1,.588,4.9c.017.453.048.892.048,1.357a27.6,27.6,0,0,1-1.388,9.087c-.014.037-.023.079-.035.116a20.258,20.258,0,0,1-2.47,4.86,16.509,16.509,0,0,1-7.775,6.184,21.628,21.628,0,0,1-8.09,1.461H21.382v2.88H34.338a25.729,25.729,0,0,0,9.549-1.7,20.718,20.718,0,0,0,7.4-4.893c.153-.157.286-.337.434-.5a20.851,20.851,0,0,0,2.168-2.83,23.791,23.791,0,0,0,2.193-4.415,29.123,29.123,0,0,0,1.7-10.25,32.112,32.112,0,0,0-.523-5.837" transform="translate(22.858 5.607)"/>
      <path id="Path_27398" data-name="Path 27398" d="M64.788,36.953a23.554,23.554,0,0,0,1.059-7.322,23.828,23.828,0,0,0-1.059-7.349,17.534,17.534,0,0,0-1.312-3.068,14.4,14.4,0,0,0-1.761-2.539c-.027-.033-.06-.062-.087-.093a13.515,13.515,0,0,0-4.862-3.5,16.574,16.574,0,0,0-6.648-1.266,16.548,16.548,0,0,0-6.65,1.266A14.242,14.242,0,0,0,41.708,14a26.291,26.291,0,0,1,.722,2.948,10.453,10.453,0,0,1,2.286-1.457,12.657,12.657,0,0,1,5.4-1.078,12.672,12.672,0,0,1,5.4,1.078,10.344,10.344,0,0,1,3.855,3.075c.151.194.283.408.422.615a13.859,13.859,0,0,1,1.817,3.979c.023.074.05.145.07.219a23.762,23.762,0,0,1,.763,6.251,23.815,23.815,0,0,1-.763,6.269c-.023.087-.056.166-.081.25a13.69,13.69,0,0,1-1.854,3.983c-.126.18-.242.368-.374.538a10.25,10.25,0,0,1-3.855,3.041,12.892,12.892,0,0,1-5.4,1.055,12.848,12.848,0,0,1-5.4-1.059,10.193,10.193,0,0,1-3.855-3.039,12.764,12.764,0,0,1-1.8-3.221,20.852,20.852,0,0,1-2.168,2.83A14.457,14.457,0,0,0,38.5,42.54a13.526,13.526,0,0,0,4.97,3.579,16.859,16.859,0,0,0,6.648,1.248,16.859,16.859,0,0,0,6.648-1.248,13.413,13.413,0,0,0,4.771-3.393c.056-.064.12-.12.178-.186a14.616,14.616,0,0,0,1.728-2.481,17.083,17.083,0,0,0,1.347-3.106" transform="translate(39.44 12.625)"/>
      <path id="Path_27399" data-name="Path 27399" d="M70.42,17.278a3.171,3.171,0,0,0,.327-.3l.867-1.179a14.648,14.648,0,0,0-4.56-2.917,15.669,15.669,0,0,0-5.994-1.072,16.046,16.046,0,0,0-6.654,1.3,13.716,13.716,0,0,0-4.711,3.47c.029.031.06.058.089.091a14.8,14.8,0,0,1,1.761,2.541c.161-.24.321-.482.5-.7a10.584,10.584,0,0,1,3.888-3.035,13.063,13.063,0,0,1,11.481.434,13.147,13.147,0,0,1,1.618,1.022,1.81,1.81,0,0,0,.954.47.681.681,0,0,0,.437-.126" transform="translate(53.125 12.626)"/>
      <path id="Path_27400" data-name="Path 27400" d="M68.509,27.8c-.23.161-.455.323-.722.492a13.736,13.736,0,0,1-2.777,1.283,12.686,12.686,0,0,1-4.184.588,11.766,11.766,0,0,1-4.933-1.006,10.352,10.352,0,0,1-3.788-2.932c-.192-.242-.372-.5-.55-.763a14.771,14.771,0,0,1-1.726,2.481c-.058.066-.122.122-.18.186a13.047,13.047,0,0,0,4.666,3.443,14.819,14.819,0,0,0,6.027,1.2,18.487,18.487,0,0,0,3.728-.36,16.755,16.755,0,0,0,3.319-1.028c.312-.134.6-.29.892-.443a3.251,3.251,0,0,1-.288-1.361,3.149,3.149,0,0,1,.244-1.248,2.954,2.954,0,0,1,.271-.528" transform="translate(53.078 27.224)"/>
      <path id="Path_27401" data-name="Path 27401" d="M65.41,27.873a3.378,3.378,0,0,0-.666-1.03,3.224,3.224,0,0,0-.989-.689,2.806,2.806,0,0,0-1.2-.259,2.754,2.754,0,0,0-1.219.259,3.268,3.268,0,0,0-.968.689,2.93,2.93,0,0,0-.387.5,3.155,3.155,0,0,0-.267.528,3.442,3.442,0,0,0,.048,2.609,3.094,3.094,0,0,0,.608.917,2.911,2.911,0,0,0,2.185.915,2.992,2.992,0,0,0,1.2-.24,3.112,3.112,0,0,0,.989-.675,3.364,3.364,0,0,0,.664-1.012,3.066,3.066,0,0,0,.254-1.266,3.157,3.157,0,0,0-.252-1.248" transform="translate(63.584 27.682)"/>
      <path id="Path_27402" data-name="Path 27402" d="M36.4,5.246V6.461a2.451,2.451,0,0,1-.486,1.423L4.726,51.439h31.4v2.95H0V53.107a2.105,2.105,0,0,1,.418-1.25L31.675,8.2H.9V5.246Z" transform="translate(0 5.608)"/>
      <rect id="Rectangle_985" data-name="Rectangle 985" width="3.577" height="49.144" transform="translate(38.637 10.852)"/>
      <path id="Path_27403" data-name="Path 27403" d="M62.616,0a1.882,1.882,0,0,0-1.763,1.976v.565h-.5a.534.534,0,0,0-.5.563V6.491a.534.534,0,0,0,.5.563h4.535a.536.536,0,0,0,.5-.563V3.1a.536.536,0,0,0-.5-.563h-.5V1.976A1.883,1.883,0,0,0,62.7.021.255.255,0,0,0,62.616,0m0,.565a1.338,1.338,0,0,1,1.26,1.411v.563h-2.52V1.976A1.338,1.338,0,0,1,62.616.565" transform="translate(63.976 0)"/>
    </g>
  </g>
</svg>
