<svg xmlns="http://www.w3.org/2000/svg" xmlns:xlink="http://www.w3.org/1999/xlink" width="183.645" height="40" viewBox="0 0 183.645 40">
  <defs>
    <clipPath id="clip-path">
      <rect id="Rectangle_982" data-name="Rectangle 982" width="183.645" height="40" fill="none"/>
    </clipPath>
  </defs>
  <g id="Group_4754" data-name="Group 4754" transform="translate(0 0)">
    <g id="Group_4748" data-name="Group 4748" transform="translate(0 0)" clip-path="url(#clip-path)">
      <path id="Path_27388" data-name="Path 27388" d="M119.049,33.162a41.125,41.125,0,0,0-2.757-4.908c-1.779-3.086-3.78-6.652-5.57-9.761-1.474-2.561-2.848-5.85-6.508-5.9-3.805-.053-5.071,3.308-6.452,5.735-4.385,7.707-13.346,23.218-13.346,23.218h4.136s8.55-15.13,12.794-22.776c.543-.978,1.618-2.261,2.867-2.261,1.9,0,2.844,2.256,3.7,3.805,2.281,4.151,4.479,8.124,6.618,12.132.673,1.262,2.038,2.921,1.1,4.633-.61,1.117-1.839,1.048-3.584,1.048,0,.029-16.875,0-16.875,0v3.419H110.5a36.177,36.177,0,0,0,5.073-.165c2.422-.455,3.737-2.333,4.081-4.743V36.03a9.716,9.716,0,0,0-.606-2.868" transform="translate(-12.51 -1.866)"/>
      <path id="Path_27389" data-name="Path 27389" d="M.532,14.332H18.675L.245,40.072A1.255,1.255,0,0,0,0,40.809v.757H21.3v-1.74H2.785L21.173,14.147a1.447,1.447,0,0,0,.286-.839v-.717H.532Z" transform="translate(0 -1.866)"/>
      <rect id="Rectangle_980" data-name="Rectangle 980" width="2.109" height="28.975" transform="translate(28.544 10.725)"/>
      <path id="Path_27390" data-name="Path 27390" d="M73.631,12.653a.738.738,0,0,0-.328.327L61.919,33.109a5.451,5.451,0,0,0-.3.6c-.089.212-.173.428-.255.645a8.335,8.335,0,0,0-.533-1.227L49.141,12.98a.727.727,0,0,0-.338-.327,1.417,1.417,0,0,0-.461-.061H46.909V41.566h1.822V16.871a11.152,11.152,0,0,0-.061-1.147L60.383,36a.92.92,0,0,0,.819.532h.328A.893.893,0,0,0,62.348,36L73.754,15.745a10.754,10.754,0,0,0-.061,1.126V41.566h1.843V12.592H74.082a1.32,1.32,0,0,0-.451.061" transform="translate(-6.952 -1.866)"/>
      <path id="Path_27391" data-name="Path 27391" d="M200.313,41.566H198.7a.707.707,0,0,1-.47-.153,1,1,0,0,1-.287-.4l-3.42-8.416H180.287l-3.4,8.416a.871.871,0,0,1-.287.389.761.761,0,0,1-.491.164h-1.6l11.855-28.975h2.089ZM180.922,31.041H193.9L187.987,16.4q-.144-.349-.287-.789c-.1-.293-.192-.6-.286-.932q-.144.492-.288.932c-.095.294-.191.564-.286.809Z" transform="translate(-25.862 -1.866)"/>
      <rect id="Rectangle_981" data-name="Rectangle 981" width="2.109" height="28.975" transform="translate(181.535 10.725)"/>
      <path id="Path_27392" data-name="Path 27392" d="M147.66,33.237l-6.412,6.291-1.959-1.861,6.412-6.38m10.329-6.468-6.5,6.468m6.5-10.366,2.137-2.127,1.959,1.95L157.99,22.87m-10.33,6.469,6.412-6.38M139.2,33.237l-2.137,2.126L135.1,33.414l2.137-2.127M147.66,24.82l-6.5,6.468m6.5-10.366,6.323-6.291,1.959,1.949-6.412,6.291M139.2,29.338l6.5-6.469m8.1,4.253,6.322,6.291-1.959,1.949-6.322-6.379m-1.959-1.861-10.6-10.545,1.959-1.949,10.6,10.545m-1.959,10.279-6.5-6.469m10.419,6.469,2.137,2.215-1.959,1.861L151.846,37.4m-6.5-10.279,6.5,6.38m-10.418-6.38L135.1,20.744l1.959-1.95,6.322,6.38m12.645,8.063-8.459,8.329L143.386,37.4m10.419-18.7,8.371,8.418-4.186,4.164m-14.6-14.531,4.186-4.165,4.274,4.165M139.2,20.921l2.227-2.216m0,16.747-8.371-8.33,4.185-4.253m16.83,8.329-6.5,6.469-2.227-2.215m6.5-14.8,6.412,6.468-2.227,2.216M145.345,18.705l2.227-2.216,2.315,2.216M141.16,22.87l2.315-2.215m0,12.848-6.5-6.38,2.227-2.3" transform="translate(-19.718 -1.866)" fill="none" stroke="#000" stroke-miterlimit="2.613" stroke-width="0.5"/>
      <path id="Path_27393" data-name="Path 27393" d="M.384,1.81V2.873H0V.031H.842a1.594,1.594,0,0,1,.47.063.906.906,0,0,1,.331.178.716.716,0,0,1,.2.278A.98.98,0,0,1,1.9.912a.919.919,0,0,1-.07.364.781.781,0,0,1-.2.284.967.967,0,0,1-.333.183,1.427,1.427,0,0,1-.456.066Zm0-.3H.842a.889.889,0,0,0,.291-.044.6.6,0,0,0,.212-.122.509.509,0,0,0,.129-.187.626.626,0,0,0,.044-.24A.546.546,0,0,0,1.35.487.735.735,0,0,0,.842.335H.384Zm5.251-.052a1.622,1.622,0,0,1-.1.587,1.346,1.346,0,0,1-.286.458,1.284,1.284,0,0,1-.445.3,1.608,1.608,0,0,1-1.147,0,1.289,1.289,0,0,1-.444-.3,1.346,1.346,0,0,1-.286-.458,1.636,1.636,0,0,1-.1-.586,1.639,1.639,0,0,1,.1-.586,1.353,1.353,0,0,1,.286-.46,1.285,1.285,0,0,1,.444-.3A1.585,1.585,0,0,1,4.8.107a1.288,1.288,0,0,1,.445.3,1.353,1.353,0,0,1,.286.46,1.634,1.634,0,0,1,.1.585m-.4,0a1.469,1.469,0,0,0-.072-.47,1,1,0,0,0-.2-.352A.881.881,0,0,0,4.647.41,1.1,1.1,0,0,0,4.228.332,1.085,1.085,0,0,0,3.813.41a.9.9,0,0,0-.32.221.99.99,0,0,0-.2.352,1.445,1.445,0,0,0-.072.47,1.458,1.458,0,0,0,.072.468,1,1,0,0,0,.2.352.887.887,0,0,0,.319.22,1.084,1.084,0,0,0,.416.077,1.1,1.1,0,0,0,.418-.077.867.867,0,0,0,.318-.22,1,1,0,0,0,.2-.352,1.458,1.458,0,0,0,.072-.468M6.441.031h.32a.138.138,0,0,1,.085.026.124.124,0,0,1,.046.066L7.481,2.1c.011.036.02.074.029.115s.017.083.025.129c.009-.045.019-.088.028-.129A1.026,1.026,0,0,1,7.594,2.1L8.264.123A.143.143,0,0,1,8.311.06.127.127,0,0,1,8.4.031h.112a.134.134,0,0,1,.084.026.13.13,0,0,1,.047.066L9.3,2.1a1.893,1.893,0,0,1,.064.236c.008-.043.015-.085.022-.125A.833.833,0,0,1,9.416,2.1L10.007.123a.125.125,0,0,1,.044-.064.131.131,0,0,1,.084-.028h.3L9.547,2.873H9.2L8.479.705A1.184,1.184,0,0,1,8.44.562c-.007.027-.014.052-.02.077S8.406.686,8.4.705L7.676,2.873H7.33Zm6.725,0V.344H11.8v.945H12.9v.3H11.8V2.56h1.369v.313H11.409V.031Zm1.575,1.657V2.873h-.384V.031h.806a1.805,1.805,0,0,1,.468.055.908.908,0,0,1,.325.158.62.62,0,0,1,.19.249.824.824,0,0,1,.062.326.817.817,0,0,1-.048.282.742.742,0,0,1-.139.234.812.812,0,0,1-.221.178,1.071,1.071,0,0,1-.295.111.419.419,0,0,1,.127.121l.831,1.129H16.12a.169.169,0,0,1-.155-.081l-.739-1.015a.213.213,0,0,0-.074-.069.26.26,0,0,0-.119-.02Zm0-.28h.4a.974.974,0,0,0,.3-.039.623.623,0,0,0,.215-.115.476.476,0,0,0,.13-.179A.567.567,0,0,0,15.83.846a.452.452,0,0,0-.168-.382.81.81,0,0,0-.5-.129h-.422ZM19.231.031V.344H17.863v.945h1.107v.3H17.863V2.56h1.368v.313H17.476V.031Zm3.622,1.423a1.59,1.59,0,0,1-.1.581,1.287,1.287,0,0,1-.286.449,1.267,1.267,0,0,1-.444.288,1.527,1.527,0,0,1-.572.1H20.383V.031h1.066a1.561,1.561,0,0,1,.572.1,1.284,1.284,0,0,1,.444.29,1.3,1.3,0,0,1,.286.45,1.59,1.59,0,0,1,.1.581m-.4,0a1.435,1.435,0,0,0-.072-.468.991.991,0,0,0-.2-.348.852.852,0,0,0-.318-.218,1.1,1.1,0,0,0-.416-.076h-.678v2.22h.678a1.1,1.1,0,0,0,.416-.076.862.862,0,0,0,.318-.218.991.991,0,0,0,.2-.347,1.435,1.435,0,0,0,.072-.468m2.882,1.42V.031h.909A1.756,1.756,0,0,1,26.7.083a.885.885,0,0,1,.313.147.585.585,0,0,1,.181.233.772.772,0,0,1,.059.31.609.609,0,0,1-.032.2.6.6,0,0,1-.1.181.71.71,0,0,1-.167.148.923.923,0,0,1-.236.107.888.888,0,0,1,.472.224.587.587,0,0,1,.158.428.8.8,0,0,1-.066.33.7.7,0,0,1-.2.256.9.9,0,0,1-.314.166,1.4,1.4,0,0,1-.424.059Zm.386-1.295v.99h.617a.942.942,0,0,0,.284-.038.515.515,0,0,0,.194-.106.406.406,0,0,0,.112-.163.573.573,0,0,0,.036-.207.426.426,0,0,0-.156-.348.732.732,0,0,0-.472-.128Zm0-.274h.509a.985.985,0,0,0,.282-.036.568.568,0,0,0,.2-.1.4.4,0,0,0,.117-.153.509.509,0,0,0,.037-.2.437.437,0,0,0-.152-.367.764.764,0,0,0-.469-.117h-.523Zm3.883.439v1.13h-.384V1.743L28.179.031h.338A.118.118,0,0,1,28.6.057a.248.248,0,0,1,.052.063l.652,1.1a1.263,1.263,0,0,1,.066.131c.018.041.034.081.049.121.014-.041.031-.082.048-.123a1.026,1.026,0,0,1,.066-.129l.651-1.1a.253.253,0,0,1,.049-.06.114.114,0,0,1,.079-.029h.342Z" transform="translate(0 0)" fill="#bd9e56"/>
    </g>
  </g>
</svg>
